<svg width="33" height="232" viewBox="0 0 33 232" fill="none" xmlns="http://www.w3.org/2000/svg">
<path d="M17.1547 226L17.1547 134.8C17.1547 133.8 17.4547 131.4 18.0547 127.6C18.4547 124 20.2547 120.8 23.4547 118C20.2547 115.4 18.4547 112.2 18.0547 108.4C17.4547 104.6 17.1547 102.2 17.1547 101.2L17.1547 6.7L0.65471 6.7L0.654711 0.699995L16.2547 0.699996C17.8547 0.699997 19.4547 1.4 21.0547 2.8C22.4547 4.2 23.1547 6.5 23.1547 9.7L23.1547 101.2C23.1547 104.2 23.7547 107.2 24.9547 110.2C26.1547 113.2 28.5547 114.9 32.1547 115.3L32.1547 121.3C29.3547 121.3 27.3547 122.2 26.1547 124C24.7547 126 23.9547 128.1 23.7547 130.3C23.3547 132.5 23.1547 134 23.1547 134.8L23.1547 223C23.1547 227 22.2547 229.5 20.4547 230.5C18.4547 231.5 17.0547 232 16.2547 232L0.65469 232L0.654691 226L17.1547 226Z" fill="#DADEE1"/>
</svg>
