<svg id="Capa_1" data-name="Capa 1" xmlns="http://www.w3.org/2000/svg" viewBox="0 0 461.83 253.3"><defs><style>.cls-1{fill:#fff;}</style></defs><path class="cls-1" d="M-648.65,339.79a23.11,23.11,0,0,0,5.38,5.79q3.22,2.46,8.72,5.85,6,3.75,9.42,6.44a24.37,24.37,0,0,1,5.85,6.61,17.21,17.21,0,0,1,2.4,9.18,18.9,18.9,0,0,1-3.1,10.65,20.65,20.65,0,0,1-8.78,7.31,30.3,30.3,0,0,1-12.93,2.63A42.52,42.52,0,0,1-651.81,393a24.22,24.22,0,0,1-7.89-3.16,2.72,2.72,0,0,1-1.17-2.23l-.71-17.78v-.12c0-.31.2-.48.59-.52s.62.09.7.41a62.42,62.42,0,0,0,8.83,15.91,15.59,15.59,0,0,0,12.7,6.2,13,13,0,0,0,8.42-2.75q3.39-2.74,3.4-9.19a17.26,17.26,0,0,0-2.29-9,22.45,22.45,0,0,0-5.61-6.44q-3.33-2.57-9.07-6.32t-8.77-6.14a23,23,0,0,1-5.39-6.2,16.34,16.34,0,0,1-2.22-8.6,15.91,15.91,0,0,1,3.39-10.3,20.39,20.39,0,0,1,8.84-6.26,32.2,32.2,0,0,1,11.41-2,42,42,0,0,1,7.95.76,32.31,32.31,0,0,1,6.67,1.93,2.36,2.36,0,0,1,1.76,2.22l.35,15.91c0,.24-.22.39-.65.47s-.68,0-.76-.23a51.68,51.68,0,0,0-6.26-12.93q-3.92-5.79-11.76-5.79a11.39,11.39,0,0,0-8.36,3,11.1,11.1,0,0,0-3.1,8.31A13.78,13.78,0,0,0-648.65,339.79Z" transform="translate(661.58 -318.44)"/><path class="cls-1" d="M-546.62,324.52a9.6,9.6,0,0,0-7.9-3.39c-.16,0-.24-.24-.24-.7s.08-.71.24-.71l5.38.12c3,.16,5.3.23,7,.23,1.4,0,3.51-.07,6.32-.23l5.15-.12c.15,0,.23.24.23.71s-.08.7-.23.7a8.29,8.29,0,0,0-7.08,3.39q-2.52,3.39-2.52,9.48v32.76a29.13,29.13,0,0,1-3.57,14.68,24.25,24.25,0,0,1-10.06,9.65,32,32,0,0,1-15,3.4,33.43,33.43,0,0,1-15.21-3.34,24.39,24.39,0,0,1-10.36-9.59,28.48,28.48,0,0,1-3.68-14.69V329.2a13.91,13.91,0,0,0-.71-5.15,4,4,0,0,0-2.51-2.28,18.31,18.31,0,0,0-5.68-.64c-.23,0-.35-.24-.35-.7s.12-.71.35-.71l6.09.12c3.43.16,6.2.23,8.31.23,2.34,0,5.22-.07,8.65-.23l5.85-.12c.24,0,.35.24.35.71s-.11.7-.35.7a17.38,17.38,0,0,0-5.73.7,4,4,0,0,0-2.51,2.4,15.56,15.56,0,0,0-.65,5.2v33.35q0,13.92,5.79,20.77t16.21,6.84q9.94,0,15.56-6.14t5.61-17.38V334Q-543.88,327.91-546.62,324.52Z" transform="translate(661.58 -318.44)"/><path class="cls-1" d="M-458.35,322.06a2.94,2.94,0,0,1,1.17.88,6.72,6.72,0,0,1,.47,1.81l1.4,15.45c0,.23-.19.39-.58.47a.67.67,0,0,1-.82-.35q-3-9.6-9.07-14.63a22.52,22.52,0,0,0-14.92-5A27.82,27.82,0,0,0-496,324.93a28.29,28.29,0,0,0-10.48,12.29,43.74,43.74,0,0,0-3.74,18.66,42.74,42.74,0,0,0,4,18.78,31.27,31.27,0,0,0,10.88,12.81A27.6,27.6,0,0,0-479.76,392q8.53,0,14.22-4.51t10-14.33c.08-.23.31-.31.7-.23s.59.19.59.35l-1.53,14a3.51,3.51,0,0,1-.41,1.75,3.84,3.84,0,0,1-1.22.82,58.13,58.13,0,0,1-22.35,4.33,50.81,50.81,0,0,1-22.35-4.74,36.54,36.54,0,0,1-15.32-13.33,35.8,35.8,0,0,1-5.5-19.72,34.79,34.79,0,0,1,5.73-19.65,38.71,38.71,0,0,1,15.68-13.52,50.09,50.09,0,0,1,22.23-4.85Q-466.3,318.44-458.35,322.06Z" transform="translate(661.58 -318.44)"/><path class="cls-1" d="M-384.7,324.52q-2.74-3.39-7.9-3.39c-.15,0-.23-.24-.23-.7s.08-.71.23-.71l5.39.12c3,.16,5.3.23,7,.23,1.4,0,3.51-.07,6.31-.23l5.15-.12c.16,0,.24.24.24.71s-.08.7-.24.7a8.31,8.31,0,0,0-7.08,3.39q-2.51,3.39-2.51,9.48v32.76a29.13,29.13,0,0,1-3.57,14.68,24.25,24.25,0,0,1-10.06,9.65,32,32,0,0,1-15,3.4,33.49,33.49,0,0,1-15.21-3.34,24.42,24.42,0,0,1-10.35-9.59,28.39,28.39,0,0,1-3.69-14.69V329.2a14,14,0,0,0-.7-5.15,4.1,4.1,0,0,0-2.51-2.28,18.31,18.31,0,0,0-5.68-.64c-.23,0-.35-.24-.35-.7s.12-.71.35-.71l6.09.12c3.43.16,6.2.23,8.3.23,2.34,0,5.23-.07,8.66-.23l5.85-.12c.23,0,.35.24.35.71s-.12.7-.35.7a17.34,17.34,0,0,0-5.73.7,4.06,4.06,0,0,0-2.52,2.4,15.61,15.61,0,0,0-.64,5.2v33.35q0,13.92,5.79,20.77t16.2,6.84q9.94,0,15.57-6.14t5.61-17.38V334Q-381.95,327.91-384.7,324.52Z" transform="translate(661.58 -318.44)"/><path class="cls-1" d="M-346.56,339.79a23.3,23.3,0,0,0,5.38,5.79q3.23,2.46,8.72,5.85,6,3.75,9.42,6.44a24.37,24.37,0,0,1,5.85,6.61,17.21,17.21,0,0,1,2.4,9.18,18.9,18.9,0,0,1-3.1,10.65,20.59,20.59,0,0,1-8.78,7.31,30.3,30.3,0,0,1-12.93,2.63A42.52,42.52,0,0,1-349.72,393a24.22,24.22,0,0,1-7.89-3.16,2.72,2.72,0,0,1-1.17-2.23l-.71-17.78v-.12c0-.31.2-.48.59-.52s.62.09.7.41a62.42,62.42,0,0,0,8.83,15.91,15.59,15.59,0,0,0,12.7,6.2,13,13,0,0,0,8.42-2.75q3.39-2.74,3.4-9.19a17.26,17.26,0,0,0-2.29-9,22.45,22.45,0,0,0-5.61-6.44q-3.33-2.57-9.07-6.32t-8.77-6.14a23,23,0,0,1-5.39-6.2,16.34,16.34,0,0,1-2.22-8.6,15.91,15.91,0,0,1,3.39-10.3,20.39,20.39,0,0,1,8.84-6.26,32.2,32.2,0,0,1,11.41-2,42,42,0,0,1,7.95.76,32.13,32.13,0,0,1,6.67,1.93,2.36,2.36,0,0,1,1.76,2.22l.35,15.91c0,.24-.22.39-.65.47s-.68,0-.76-.23a51.33,51.33,0,0,0-6.26-12.93q-3.92-5.79-11.76-5.79a11.39,11.39,0,0,0-8.36,3,11.1,11.1,0,0,0-3.1,8.31A13.78,13.78,0,0,0-346.56,339.79Z" transform="translate(661.58 -318.44)"/><path class="cls-1" d="M-441,428a2.91,2.91,0,0,1,1.66,1.17,2.58,2.58,0,0,1,.41,2,2.28,2.28,0,0,1-1.17,1.65Q-465,449-479.21,461.12q-8.7,52.47-20.3,79.82t-22.65,30.38a10.87,10.87,0,0,1-2.9.42,9.55,9.55,0,0,1-7.6-3.87q-5.94-7.46-4.28-23.89,1.94-17.68,12-36.19,14.77-26.66,40.74-49.44,1.92-11.73,3.59-24.58-4.43,6.63-8.15,11.6-5.81,7.61-9.95,6.35c-2.2-.64-3.5-2.66-3.86-6.07a40.49,40.49,0,0,1,1.45-12.5A57.74,57.74,0,0,1-495,418q4.29-7.45,9.4-9.95,7-3.58,13.67,2.35a2.82,2.82,0,0,1,.89,1.87,2.39,2.39,0,0,1-.69,1.86,2.67,2.67,0,0,1-1.86.9,2.66,2.66,0,0,1-1.93-.62q-5-4.56-10.08,0-5.81,5.25-9.26,16.64T-497,446.34a19.27,19.27,0,0,0,4-4.14,190.23,190.23,0,0,0,14.22-21.13,2.54,2.54,0,0,1,3.18-1.18,2.33,2.33,0,0,1,1.79,2.83q-1.94,15.88-4.14,30.39,12.84-10.5,34.94-24.73A2.33,2.33,0,0,1-441,428Zm-82.65,138.24q3.72-1,8.08-6.63t9.46-16.57q5.1-10.9,10.56-30.66t10-45.43q-21.82,20.16-34.67,43.5a102.93,102.93,0,0,0-6.84,14.91,85.38,85.38,0,0,0-3.79,13.54A62.88,62.88,0,0,0-532,550.12a34.33,34.33,0,0,0,1,8.77,17.16,17.16,0,0,0,2.48,5.67A4.33,4.33,0,0,0-523.68,566.21Z" transform="translate(661.58 -318.44)"/><path class="cls-1" d="M-389.93,428.87a2.49,2.49,0,0,1,2,.14,2.48,2.48,0,0,1,1.31,1.52,2.76,2.76,0,0,1-.06,2q-14.79,30.53-26.38,30.52a9.54,9.54,0,0,1-1.52-.14q-9.26-1.8-11.46-24.86-6.78,9.12-12,14.92-4.69,5-8,3.45-3.31-1.25-3.18-7.18A40.11,40.11,0,0,1-447,437.36a54.39,54.39,0,0,1,6.5-13.39q4.28-6.5,9.25-8.15,7.32-2.62,13.53,4.83a2.64,2.64,0,0,1,.62,1.93,2.42,2.42,0,0,1-.89,1.8A2.66,2.66,0,0,1-420,425a2.38,2.38,0,0,1-1.79-.9q-4.85-5.79-9.81-2.21-5.65,4-9.46,14.44t-3,14.84c.55-.46,1.2-1.06,1.94-1.79a187.48,187.48,0,0,0,13.53-17c1.2-1.66,2-2.81,2.49-3.45a2.57,2.57,0,0,1,2.9-.9,2.45,2.45,0,0,1,1.93,2.42,105,105,0,0,0,1.1,12,63,63,0,0,0,1.66,7.94,19.56,19.56,0,0,0,1.93,4.49,9.64,9.64,0,0,0,1.73,2.28,2.12,2.12,0,0,0,1.31.48q1.94.42,4.91-1.86c2-1.52,4.51-4.47,7.59-8.84a115.89,115.89,0,0,0,9.46-16.64A2.71,2.71,0,0,1-389.93,428.87Z" transform="translate(661.58 -318.44)"/><path class="cls-1" d="M-335.79,428.32a2.53,2.53,0,0,1,2,.13,2.86,2.86,0,0,1,1.38,1.52,2.2,2.2,0,0,1-.14,2q-3.72,8-8.42,16.43t-10.29,17.06a84.41,84.41,0,0,1-11.12,14.08q-5.52,5.46-9.39,5.46a3.94,3.94,0,0,1-1.8-.42q-5.65-2.2-3.59-17.12,1.94-14,10.22-39.5a.24.24,0,0,0-.2.07.28.28,0,0,1-.21.07q-3,2.07-5,3.18a54.66,54.66,0,0,1-5.39,2.48A15,15,0,0,1-384.2,435a10.66,10.66,0,0,1-5.66-1.93,12.37,12.37,0,0,1-5.39-10.36q-.13-6.63,5-14.5a37.75,37.75,0,0,1,7.67-8.7q4.49-3.72,7.66-1.66a4.61,4.61,0,0,1,2.28,3.59q.35,2.49-2.41,9.6a151.82,151.82,0,0,1-9.26,18.58q4.29.56,14.09-5.94c1.19-.83,2.09-1.4,2.69-1.73s1.29-.66,2.07-1a3.5,3.5,0,0,1,2-.42,4.48,4.48,0,0,1,1.65.69q2.07,1.67.69,5.8-13.8,42.83-10.91,51.93c.19.37.33.64.42.83.73.09,1.86-.51,3.38-1.8a48.1,48.1,0,0,0,5.66-6.07q3.39-4.14,7.32-9.95t8.7-14.22q4.77-8.43,9.19-18A2.69,2.69,0,0,1-335.79,428.32ZM-389.45,419c-.83,3.23-.64,5.8.55,7.74q10.08-17.53,10.78-23.76a19.14,19.14,0,0,0-3.8,3.18,37.3,37.3,0,0,0-4.42,5.73A22.33,22.33,0,0,0-389.45,419Z" transform="translate(661.58 -318.44)"/><path class="cls-1" d="M-281.18,344.42q3.6,3.58-3.59,25.41-.54,1.65-1.52,4.56-3,9.25-5,14.77t-6.07,15.47q-4.16,9.94-9,19.06-4,19.06-7.6,40.6-6.21,36.87-6.62,50a3,3,0,0,1,2.2,0,2.75,2.75,0,0,1,1.32,1.58,2.78,2.78,0,0,1-.07,2q-2.49,5.24-5,5.24a4.67,4.67,0,0,1-1.11-.13,3.55,3.55,0,0,1-2.14-2c-.41-1-.6-3-.55-6.07a135,135,0,0,1,1.17-13.61q1.67-14.35,5.53-37.84,2.2-12.84,4.55-25-4.27,6.9-9.11,13.81-9.12,13.26-15.88,9.53-4.43-3.18-4.28-11.26a40,40,0,0,1,4-16.36q4.56-9.68,10.77-14.23t11.05-3.11q4.83,1.45,5.53,7.25c.46-.73.87-1.47,1.24-2.21q7.32-34.65,14.71-55.72t12.08-22.58A2.84,2.84,0,0,1-281.18,344.42ZM-328,449.24q6.48-9.39,11.87-18.78a2.18,2.18,0,0,1-1.65-2.77c.36-3.4-.23-5.33-1.8-5.8h-.83q-2.89,0-7.11,3.8A33.88,33.88,0,0,0-335,436.53a33.25,33.25,0,0,0-3,9.32,27,27,0,0,0-.35,7.74c.28,2,.78,3.15,1.52,3.52.28.19.71.16,1.31-.07a11.63,11.63,0,0,0,3-2.35A41,41,0,0,0-328,449.24Zm38.11-81.07a138.94,138.94,0,0,0,4-14.36q-6.76,14.22-14.5,44.33,3.87-9.39,9-25.27C-290.75,370.84-290.24,369.28-289.88,368.17Z" transform="translate(661.58 -318.44)"/><path class="cls-1" d="M-252.17,428.45a2.57,2.57,0,0,1,2,.42,2.34,2.34,0,0,1,1,1.72,2.77,2.77,0,0,1-.41,1.94q-15.61,21.83-28.45,30.93a17.49,17.49,0,0,1-10.08,3.59,11.34,11.34,0,0,1-6.77-2.07,12.49,12.49,0,0,1-3-3.31,21.16,21.16,0,0,1-2.28-5.8,28.67,28.67,0,0,1-.34-9.81,68.3,68.3,0,0,1,3.11-13.81v-.14q3.85-12.56,9.39-19.88t9.94-7.46a3.77,3.77,0,0,1,4.14,2.76q1.51,4-3.59,11.33T-292.5,434.6a68.64,68.64,0,0,0-2.35,9.94,33.6,33.6,0,0,0-.48,7.25,17.19,17.19,0,0,0,1,4.7,12.26,12.26,0,0,0,1.39,2.83,7.55,7.55,0,0,0,1.31,1.38q4.14,3,10.63-1.66,12.15-8.55,27.07-29.55A3,3,0,0,1-252.17,428.45ZM-279,410.57q-4.83,3-9.53,13.12Q-280.49,415.68-279,410.57Z" transform="translate(661.58 -318.44)"/><path class="cls-1" d="M-203.15,428.66a2.71,2.71,0,0,1,2.07.28,2.5,2.5,0,0,1,1.24,1.59,2.57,2.57,0,0,1-.27,2,154.34,154.34,0,0,1-8.15,13.12,35.59,35.59,0,0,1-7,7.59q-3.6,2.77-7,2.35-6.9-.82-10.91-14.91-2.9-9.54-5-9.53a1.5,1.5,0,0,0-1.17.34,13.85,13.85,0,0,0-2.42,2.49,40.66,40.66,0,0,0-3.66,5.45q-2,3.46-5.25,10.22t-7,16a2.49,2.49,0,0,1-2.49,1.66,1.28,1.28,0,0,1-.55-.14,2.4,2.4,0,0,1-2.07-2.9q1.38-11.32,10.36-42.12,1-3.18,1.38-4.83a2.73,2.73,0,0,1,1.38-1.59,2.78,2.78,0,0,1,2-.21,2.56,2.56,0,0,1,1.59,1.24,2.37,2.37,0,0,1,.14,2.08q-.28,1-1.38,4.83-3,10.63-4.7,16.57,4.42-8.28,7.73-11.46t6.36-3a6.8,6.8,0,0,1,5.73,3.73,46.47,46.47,0,0,1,4.07,9.8q3,10.65,6.49,11,1.66.29,4.08-1.86a33.81,33.81,0,0,0,5.18-6.22q2.76-4.06,4.21-6.42c1-1.56,2.09-3.54,3.38-5.94A2.57,2.57,0,0,1-203.15,428.66Z" transform="translate(661.58 -318.44)"/></svg>